# This file uses centimeters as units for non-parametric coordinates.

mtllib Wall.mtl
g default
v -0.500000 0.000000 0.500000
v 0.500000 0.000000 0.500000
v -0.500000 5.000000 0.500000
v 0.500000 5.000000 0.500000
v -0.500000 5.000000 -0.500000
v 0.500000 5.000000 -0.500000
v -0.500000 0.000000 -0.500000
v 0.500000 0.000000 -0.500000
vt 0.102888 0.007742
vt 0.296962 0.007741
vt 0.296962 0.993057
vt 0.102888 0.993057
vt 0.103678 0.007742
vt 0.297752 0.007742
vt 0.297752 0.993057
vt 0.103678 0.993057
vt 0.599495 0.600959
vt 0.797137 0.600959
vt 0.797137 0.798602
vt 0.599495 0.798602
vt 0.599000 0.600513
vt 0.796643 0.600513
vt 0.796643 0.798156
vt 0.599000 0.798156
vt 0.102888 0.007249
vt 0.296962 0.007249
vt 0.296962 0.992564
vt 0.102888 0.992564
vt 0.297494 0.992828
vt 0.103420 0.992829
vt 0.103420 0.007514
vt 0.297494 0.007514
vn 0.000000 0.000000 1.000000
vn 0.000000 0.000000 1.000000
vn 0.000000 0.000000 1.000000
vn 0.000000 0.000000 1.000000
vn 0.000000 1.000000 0.000000
vn 0.000000 1.000000 0.000000
vn 0.000000 1.000000 0.000000
vn 0.000000 1.000000 0.000000
vn 0.000000 0.000000 -1.000000
vn 0.000000 0.000000 -1.000000
vn 0.000000 0.000000 -1.000000
vn 0.000000 0.000000 -1.000000
vn 0.000000 -1.000000 0.000000
vn 0.000000 -1.000000 0.000000
vn 0.000000 -1.000000 0.000000
vn 0.000000 -1.000000 0.000000
vn 1.000000 0.000000 0.000000
vn 1.000000 0.000000 0.000000
vn 1.000000 0.000000 0.000000
vn 1.000000 0.000000 0.000000
vn -1.000000 0.000000 0.000000
vn -1.000000 0.000000 0.000000
vn -1.000000 0.000000 0.000000
vn -1.000000 0.000000 0.000000
s off
g pCube1
usemtl initialShadingGroup
f 1/17/1 2/18/2 4/19/3 3/20/4
f 3/9/5 4/10/6 6/11/7 5/12/8
f 5/21/9 6/22/10 8/23/11 7/24/12
f 7/13/13 8/14/14 2/15/15 1/16/16
f 2/1/17 8/2/18 6/3/19 4/4/20
f 7/5/21 1/6/22 3/7/23 5/8/24
