# This file uses centimeters as units for non-parametric coordinates.

mtllib Ore.mtl
g default
v -0.197313 -0.007443 0.200286
v 0.002687 -0.007443 0.200286
v -0.197313 0.392557 0.200286
v 0.002687 0.392557 0.200286
v -0.197313 0.392557 0.000286
v 0.002687 0.392557 0.000286
v -0.197313 -0.007443 0.000286
v 0.002687 -0.007443 0.000286
v 0.002392 -0.008137 0.100000
v 0.202392 -0.008137 0.100000
v 0.002392 0.191863 0.100000
v 0.202392 0.191863 0.100000
v 0.002392 0.191863 -0.100000
v 0.202392 0.191863 -0.100000
v 0.002392 -0.008137 -0.100000
v 0.202392 -0.008137 -0.100000
vt 0.992019 0.012444
vt 0.989247 0.012444
vt 0.010753 0.009672
vt 0.007981 0.990938
vt 0.010753 0.006900
vt 0.989247 0.988166
vt 0.010753 0.006406
vt 0.989247 0.985394
vt 0.010753 0.984900
vt 0.989247 0.984900
vt 0.986475 0.012444
vt 0.986475 0.990938
vt 0.013525 0.012444
vt 0.013525 0.990938
vt 0.989247 0.006406
vt 0.007981 0.012444
vt 0.010753 0.985394
vt 0.010753 0.012444
vt 0.989247 0.006900
vt 0.010753 0.988166
vt 0.989247 0.990938
vt 0.989247 0.009672
vt 0.010753 0.990938
vt 0.992019 0.990938
vt 0.010753 0.012444
vt 0.989247 0.012444
vt 0.989247 0.990938
vt 0.010753 0.990938
vt 0.010753 0.009672
vt 0.989247 0.009672
vt 0.989247 0.988166
vt 0.010753 0.988166
vt 0.010753 0.006900
vt 0.989247 0.006900
vt 0.989247 0.985394
vt 0.010753 0.985394
vt 0.010753 0.006406
vt 0.989247 0.006406
vt 0.989247 0.984900
vt 0.010753 0.984900
vt 0.007981 0.012444
vt 0.986475 0.012444
vt 0.986475 0.990938
vt 0.007981 0.990938
vt 0.013525 0.012444
vt 0.992019 0.012444
vt 0.992019 0.990938
vt 0.013525 0.990938
vn 0.000000 0.000000 1.000000
vn 0.000000 0.000000 1.000000
vn 0.000000 0.000000 1.000000
vn 0.000000 0.000000 1.000000
vn 0.000000 1.000000 0.000000
vn 0.000000 1.000000 0.000000
vn 0.000000 1.000000 0.000000
vn 0.000000 1.000000 0.000000
vn 0.000000 0.000000 -1.000000
vn 0.000000 0.000000 -1.000000
vn 0.000000 0.000000 -1.000000
vn 0.000000 0.000000 -1.000000
vn 0.000000 -1.000000 0.000000
vn 0.000000 -1.000000 0.000000
vn 0.000000 -1.000000 0.000000
vn 0.000000 -1.000000 0.000000
vn 1.000000 0.000000 0.000000
vn 1.000000 0.000000 0.000000
vn 1.000000 0.000000 0.000000
vn 1.000000 0.000000 0.000000
vn -1.000000 0.000000 0.000000
vn -1.000000 0.000000 0.000000
vn -1.000000 0.000000 0.000000
vn -1.000000 0.000000 0.000000
vn 0.000000 0.000000 1.000000
vn 0.000000 0.000000 1.000000
vn 0.000000 0.000000 1.000000
vn 0.000000 0.000000 1.000000
vn 0.000000 1.000000 0.000000
vn 0.000000 1.000000 0.000000
vn 0.000000 1.000000 0.000000
vn 0.000000 1.000000 0.000000
vn 0.000000 0.000000 -1.000000
vn 0.000000 0.000000 -1.000000
vn 0.000000 0.000000 -1.000000
vn 0.000000 0.000000 -1.000000
vn 0.000000 -1.000000 0.000000
vn 0.000000 -1.000000 0.000000
vn 0.000000 -1.000000 0.000000
vn 0.000000 -1.000000 0.000000
vn 1.000000 0.000000 0.000000
vn 1.000000 0.000000 0.000000
vn 1.000000 0.000000 0.000000
vn 1.000000 0.000000 0.000000
vn -1.000000 0.000000 0.000000
vn -1.000000 0.000000 0.000000
vn -1.000000 0.000000 0.000000
vn -1.000000 0.000000 0.000000
s off
g initialShadingGroup pCube4
f 1/18/1 2/2/2 4/21/3 3/23/4
f 3/3/5 4/22/6 6/6/7 5/20/8
f 5/5/9 6/19/10 8/8/11 7/17/12
f 7/7/13 8/15/14 2/10/15 1/9/16
f 2/16/17 8/11/18 6/12/19 4/4/20
f 7/13/21 1/1/22 3/24/23 5/14/24
f 9/25/25 10/26/26 12/27/27 11/28/28
f 11/29/29 12/30/30 14/31/31 13/32/32
f 13/33/33 14/34/34 16/35/35 15/36/36
f 15/37/37 16/38/38 10/39/39 9/40/40
f 10/41/41 16/42/42 14/43/43 12/44/44
f 15/45/45 9/46/46 11/47/47 13/48/48
