# This file uses centimeters as units for non-parametric coordinates.

mtllib tree.mtl
g default
v 30.625475 0.467421 -9.950799
v 26.051581 0.467421 -18.927563
v 18.927597 0.467421 -26.051565
v 9.950828 0.467421 -30.625448
v 0.000014 0.467421 -32.201510
v -9.950799 0.467421 -30.625448
v -18.927560 0.467421 -26.051559
v -26.051559 0.467421 -18.927559
v -30.625442 0.467421 -9.950796
v -32.201482 0.467421 0.000014
v -30.625442 0.467421 9.950827
v -26.051557 0.467421 18.927576
v -18.927557 0.467421 26.051570
v -9.950796 0.467421 30.625466
v 0.000013 0.467421 32.201517
v 9.950825 0.467421 30.625466
v 18.927573 0.467421 26.051567
v 26.051567 0.467421 18.927573
v 30.625461 0.467421 9.950826
v 32.201514 0.467421 0.000014
v 30.625475 162.762894 -9.950799
v 26.051581 162.762894 -18.927563
v 18.927597 162.762894 -26.051565
v 9.950828 162.762894 -30.625448
v 0.000014 162.762894 -32.201510
v -9.950799 162.762894 -30.625448
v -18.927560 162.762894 -26.051559
v -26.051559 162.762894 -18.927559
v -30.625442 162.762894 -9.950796
v -32.201482 162.762894 0.000014
v -30.625442 162.762894 9.950827
v -26.051557 162.762894 18.927576
v -18.927557 162.762894 26.051570
v -9.950796 162.762894 30.625466
v 0.000013 162.762894 32.201517
v 9.950825 162.762894 30.625466
v 18.927573 162.762894 26.051567
v 26.051567 162.762894 18.927573
v 30.625461 162.762894 9.950826
v 32.201514 162.762894 0.000014
v 0.000014 0.467421 0.000014
v 0.000014 162.762894 0.000014
vt 0.971462 0.107966
vt 0.949268 0.064408
vt 0.914701 0.029841
vt 0.871143 0.007647
vt 0.822859 -0.000000
vt 0.774575 0.007647
vt 0.731018 0.029841
vt 0.696450 0.064409
vt 0.674257 0.107966
vt 0.666609 0.156250
vt 0.674257 0.204534
vt 0.696450 0.248091
vt 0.731018 0.282659
vt 0.774575 0.304853
vt 0.822859 0.312500
vt 0.871143 0.304853
vt 0.914701 0.282659
vt 0.949268 0.248091
vt 0.971462 0.204534
vt 0.979109 0.156250
vt 0.697859 0.312500
vt 0.710359 0.312500
vt 0.722859 0.312500
vt 0.735359 0.312500
vt 0.747859 0.312500
vt 0.760359 0.312500
vt 0.772859 0.312500
vt 0.785359 0.312500
vt 0.797859 0.312500
vt 0.810359 0.312500
vt 0.822859 0.312500
vt 0.835359 0.312500
vt 0.847859 0.312500
vt 0.860359 0.312500
vt 0.872859 0.312500
vt 0.885359 0.312500
vt 0.897859 0.312500
vt 0.910359 0.312500
vt 0.922859 0.312500
vt 0.935359 0.312500
vt 0.947859 0.312500
vt 0.697859 0.688440
vt 0.710359 0.688440
vt 0.722859 0.688440
vt 0.735359 0.688440
vt 0.747859 0.688440
vt 0.760359 0.688440
vt 0.772859 0.688440
vt 0.785359 0.688440
vt 0.797859 0.688440
vt 0.810359 0.688440
vt 0.822859 0.688440
vt 0.835359 0.688440
vt 0.847859 0.688440
vt 0.860359 0.688440
vt 0.872859 0.688440
vt 0.885359 0.688440
vt 0.897859 0.688440
vt 0.910359 0.688440
vt 0.922859 0.688440
vt 0.935359 0.688440
vt 0.947859 0.688440
vt 0.971462 0.795466
vt 0.949268 0.751908
vt 0.914701 0.717341
vt 0.871143 0.695147
vt 0.822859 0.687500
vt 0.774575 0.695147
vt 0.731018 0.717341
vt 0.696450 0.751909
vt 0.674257 0.795466
vt 0.666609 0.843750
vt 0.674257 0.892034
vt 0.696450 0.935591
vt 0.731018 0.970159
vt 0.774575 0.992353
vt 0.822859 1.000000
vt 0.871143 0.992353
vt 0.914701 0.970159
vt 0.949268 0.935591
vt 0.971462 0.892034
vt 0.979109 0.843750
vt 0.822859 0.150000
vt 0.822859 0.837500
vn 0.951057 0.000000 -0.309017
vn 0.809017 0.000000 -0.587785
vn 0.809017 0.000000 -0.587785
vn 0.951057 0.000000 -0.309017
vn 0.587785 0.000000 -0.809017
vn 0.587785 0.000000 -0.809017
vn 0.309017 0.000000 -0.951057
vn 0.309017 0.000000 -0.951057
vn -0.000000 0.000000 -1.000000
vn -0.000000 0.000000 -1.000000
vn -0.309017 0.000000 -0.951056
vn -0.309017 0.000000 -0.951056
vn -0.587785 0.000000 -0.809017
vn -0.587785 0.000000 -0.809017
vn -0.809017 0.000000 -0.587785
vn -0.809017 0.000000 -0.587785
vn -0.951057 0.000000 -0.309016
vn -0.951057 0.000000 -0.309016
vn -1.000000 0.000000 -0.000000
vn -1.000000 0.000000 -0.000000
vn -0.951057 0.000000 0.309016
vn -0.951057 0.000000 0.309016
vn -0.809017 0.000000 0.587786
vn -0.809017 0.000000 0.587786
vn -0.587785 0.000000 0.809017
vn -0.587785 0.000000 0.809017
vn -0.309017 0.000000 0.951056
vn -0.309017 0.000000 0.951056
vn 0.000000 0.000000 1.000000
vn 0.000000 0.000000 1.000000
vn 0.309018 0.000000 0.951056
vn 0.309018 0.000000 0.951056
vn 0.587786 0.000000 0.809017
vn 0.587786 0.000000 0.809017
vn 0.809017 0.000000 0.587786
vn 0.809017 0.000000 0.587786
vn 0.951056 0.000000 0.309017
vn 0.951056 0.000000 0.309017
vn 1.000000 0.000000 0.000001
vn 1.000000 0.000000 0.000001
vn 0.000000 -1.000000 0.000000
vn 0.000000 -1.000000 0.000000
vn 0.000000 -1.000000 0.000000
vn 0.000000 -1.000000 0.000000
vn 0.000000 -1.000000 0.000000
vn 0.000000 -1.000000 0.000000
vn 0.000000 -1.000000 0.000000
vn 0.000000 -1.000000 0.000000
vn 0.000000 -1.000000 0.000000
vn 0.000000 -1.000000 0.000000
vn 0.000000 -1.000000 0.000000
vn 0.000000 -1.000000 0.000000
vn 0.000000 -1.000000 0.000000
vn 0.000000 -1.000000 0.000000
vn 0.000000 -1.000000 0.000000
vn 0.000000 -1.000000 -0.000000
vn 0.000000 -1.000000 -0.000000
vn 0.000000 -1.000000 -0.000000
vn 0.000000 -1.000000 -0.000000
vn 0.000000 -1.000000 0.000000
vn 0.000000 -1.000000 0.000000
vn 0.000000 1.000000 0.000000
vn 0.000000 1.000000 0.000000
vn 0.000000 1.000000 -0.000000
vn 0.000000 1.000000 0.000000
vn 0.000000 1.000000 0.000000
vn 0.000000 1.000000 0.000000
vn 0.000000 1.000000 0.000000
vn 0.000000 1.000000 0.000000
vn 0.000000 1.000000 0.000000
vn 0.000000 1.000000 0.000000
vn 0.000000 1.000000 0.000000
vn 0.000000 1.000000 0.000000
vn 0.000000 1.000000 0.000000
vn 0.000000 1.000000 0.000000
vn 0.000000 1.000000 0.000000
vn 0.000000 1.000000 0.000000
vn 0.000000 1.000000 0.000000
vn 0.000000 1.000000 -0.000001
vn 0.000000 1.000000 0.000000
vn 0.000000 1.000000 -0.000000
vn 0.000000 1.000000 -0.000001
s 1
g pCylinder1
usemtl initialShadingGroup
f 1/21/1 2/22/2 22/43/3 21/42/4
f 2/22/2 3/23/5 23/44/6 22/43/3
f 3/23/5 4/24/7 24/45/8 23/44/6
f 4/24/7 5/25/9 25/46/10 24/45/8
f 5/25/9 6/26/11 26/47/12 25/46/10
f 6/26/11 7/27/13 27/48/14 26/47/12
f 7/27/13 8/28/15 28/49/16 27/48/14
f 8/28/15 9/29/17 29/50/18 28/49/16
f 9/29/17 10/30/19 30/51/20 29/50/18
f 10/30/19 11/31/21 31/52/22 30/51/20
f 11/31/21 12/32/23 32/53/24 31/52/22
f 12/32/23 13/33/25 33/54/26 32/53/24
f 13/33/25 14/34/27 34/55/28 33/54/26
f 14/34/27 15/35/29 35/56/30 34/55/28
f 15/35/29 16/36/31 36/57/32 35/56/30
f 16/36/31 17/37/33 37/58/34 36/57/32
f 17/37/33 18/38/35 38/59/36 37/58/34
f 18/38/35 19/39/37 39/60/38 38/59/36
f 19/39/37 20/40/39 40/61/40 39/60/38
f 20/40/39 1/41/1 21/62/4 40/61/40
s 2
f 2/2/41 1/1/42 41/83/43
f 3/3/44 2/2/41 41/83/43
f 4/4/45 3/3/44 41/83/43
f 5/5/46 4/4/45 41/83/43
f 6/6/47 5/5/46 41/83/43
f 7/7/48 6/6/47 41/83/43
f 8/8/49 7/7/48 41/83/43
f 9/9/50 8/8/49 41/83/43
f 10/10/51 9/9/50 41/83/43
f 11/11/52 10/10/51 41/83/43
f 12/12/53 11/11/52 41/83/43
f 13/13/54 12/12/53 41/83/43
f 14/14/55 13/13/54 41/83/43
f 15/15/56 14/14/55 41/83/43
f 16/16/57 15/15/56 41/83/43
f 17/17/58 16/16/57 41/83/43
f 18/18/59 17/17/58 41/83/43
f 19/19/60 18/18/59 41/83/43
f 20/20/61 19/19/60 41/83/43
f 1/1/42 20/20/61 41/83/43
s 3
f 21/81/62 22/80/63 42/84/64
f 22/80/63 23/79/65 42/84/64
f 23/79/65 24/78/66 42/84/64
f 24/78/66 25/77/67 42/84/64
f 25/77/67 26/76/68 42/84/64
f 26/76/68 27/75/69 42/84/64
f 27/75/69 28/74/70 42/84/64
f 28/74/70 29/73/71 42/84/64
f 29/73/71 30/72/72 42/84/64
f 30/72/72 31/71/73 42/84/64
f 31/71/73 32/70/74 42/84/64
f 32/70/74 33/69/75 42/84/64
f 33/69/75 34/68/76 42/84/64
f 34/68/76 35/67/77 42/84/64
f 35/67/77 36/66/78 42/84/64
f 36/66/78 37/65/79 42/84/64
f 37/65/79 38/64/80 42/84/64
f 38/64/80 39/63/81 42/84/64
f 39/63/81 40/82/82 42/84/64
f 40/82/82 21/81/62 42/84/64
g default
v 12.343623 149.239987 -11.411004
v -12.343598 149.239987 -11.411002
v -19.972373 149.239987 4.358635
v -12.343596 149.239987 11.411033
v 12.343619 149.239987 11.411025
v 19.972397 149.239987 4.358634
v 24.383303 150.301612 -22.541058
v -24.383272 150.301612 -22.541038
v -39.452951 150.301612 8.609926
v -24.383272 150.301612 22.541067
v 24.383288 150.301612 22.541067
v 39.452967 150.301612 8.609924
v 46.379755 154.418096 -42.875636
v -46.379730 154.418096 -42.875628
v -75.043995 154.418096 16.377052
v -46.379724 154.418096 42.875647
v 46.379731 154.418096 42.875647
v 75.044020 154.418096 16.377050
v 63.836281 160.829703 -59.013252
v -63.836238 160.829703 -59.013248
v -103.289245 160.829703 22.541067
v -63.836232 160.829703 59.013252
v 63.836240 160.829703 59.013248
v 103.289252 160.829703 22.541063
v 75.044043 168.908825 -69.374268
v -75.044024 168.908825 -69.374260
v -121.423700 168.908825 26.498605
v -75.043995 168.908825 69.374260
v 75.044020 168.908825 69.374260
v 121.423684 168.908825 26.498601
v 78.905947 177.864528 -72.944389
v -78.905911 177.864528 -72.944381
v -127.672480 177.864528 27.862299
v -78.905905 177.864528 72.944381
v 78.905907 177.864528 72.944381
v 127.672464 177.864528 27.862295
v 75.044043 186.820276 -69.374268
v -75.044024 186.820276 -69.374260
v -121.423700 186.820276 26.498605
v -75.043995 186.820276 69.374260
v 75.044020 186.820276 69.374260
v 121.423684 186.820276 26.498601
v 63.836281 194.899328 -59.013252
v -63.836238 194.899328 -59.013248
v -103.289245 194.899328 22.541067
v -63.836232 194.899328 59.013252
v 63.836240 194.899328 59.013248
v 103.289252 194.899328 22.541063
v 46.379755 201.310975 -42.875636
v -46.379730 201.310975 -42.875628
v -75.043995 201.310975 16.377052
v -46.379724 201.310975 42.875647
v 46.379731 201.310975 42.875647
v 75.044020 201.310975 16.377050
v 24.383303 205.427434 -22.541058
v -24.383272 205.427434 -22.541038
v -39.452951 205.427434 8.609926
v -24.383272 205.427434 22.541067
v 24.383288 205.427434 22.541067
v 39.452967 205.427434 8.609924
v 0.000014 148.883181 0.000014
v 0.000014 206.845855 0.000014
vt 0.040935 0.233768
vt 0.192059 0.233768
vt 0.343183 0.233768
vt 0.418745 0.233768
vt 0.569869 0.233768
vt 0.645431 0.233768
vt 0.040935 0.271549
vt 0.192059 0.271549
vt 0.343183 0.271549
vt 0.418745 0.271549
vt 0.569869 0.271549
vt 0.645431 0.271549
vt 0.040935 0.347111
vt 0.192059 0.347111
vt 0.343183 0.347111
vt 0.418745 0.347111
vt 0.569869 0.347111
vt 0.645431 0.347111
vt 0.040935 0.422673
vt 0.192059 0.422673
vt 0.343183 0.422673
vt 0.418745 0.422673
vt 0.569869 0.422673
vt 0.645431 0.422673
vt 0.040935 0.498234
vt 0.192059 0.498234
vt 0.343183 0.498234
vt 0.418745 0.498234
vt 0.569869 0.498234
vt 0.645431 0.498234
vt 0.040935 0.573796
vt 0.192059 0.573796
vt 0.343183 0.573796
vt 0.418745 0.573796
vt 0.569869 0.573796
vt 0.645431 0.573796
vt 0.040935 0.649358
vt 0.192059 0.649358
vt 0.343183 0.649358
vt 0.418745 0.649358
vt 0.569869 0.649358
vt 0.645431 0.649358
vt 0.040935 0.724920
vt 0.192059 0.724920
vt 0.343183 0.724920
vt 0.418745 0.724920
vt 0.569869 0.724920
vt 0.645431 0.724920
vt 0.040935 0.800482
vt 0.192059 0.800482
vt 0.343183 0.800482
vt 0.418745 0.800482
vt 0.569869 0.800482
vt 0.645431 0.800482
vt 0.040935 0.876044
vt 0.192059 0.876044
vt 0.343183 0.876044
vt 0.418745 0.876044
vt 0.569869 0.876044
vt 0.645431 0.876044
vt 0.022045 0.195987
vt 0.173168 0.195987
vt 0.324292 0.195987
vt 0.399854 0.195987
vt 0.550978 0.195987
vt 0.626540 0.195987
vt 0.059825 0.951606
vt 0.210949 0.951606
vt 0.362073 0.951606
vt 0.437635 0.951606
vt 0.588759 0.951606
vt 0.664321 0.951606
vn 0.060179 -0.990540 -0.123322
vn 0.027747 -0.997996 -0.056861
vn -0.027747 -0.997996 -0.056861
vn -0.060179 -0.990540 -0.123322
vn -0.049347 -0.998780 -0.002005
vn -0.107809 -0.994164 -0.003831
vn -0.013949 -0.997422 0.070398
vn -0.030669 -0.987773 0.152852
vn 0.013949 -0.997422 0.070399
vn 0.030669 -0.987773 0.152852
vn 0.049347 -0.998780 -0.002005
vn 0.107809 -0.994164 -0.003831
vn -0.105524 -0.970620 -0.216245
vn 0.105524 -0.970620 -0.216245
vn -0.188351 -0.982098 -0.002532
vn -0.055507 -0.963365 0.262385
vn 0.055507 -0.963365 0.262386
vn 0.188351 -0.982098 -0.002532
vn -0.178964 -0.912946 -0.366743
vn 0.178964 -0.912946 -0.366743
vn -0.326597 -0.945164 0.000079
vn -0.095524 -0.894143 0.437474
vn 0.095524 -0.894143 0.437474
vn 0.326598 -0.945163 0.000079
vn -0.307111 -0.713865 -0.629348
vn 0.307111 -0.713865 -0.629348
vn -0.604120 -0.796880 0.004536
vn -0.160206 -0.673408 0.721704
vn 0.160206 -0.673408 0.721704
vn 0.604120 -0.796880 0.004537
vn -0.438553 0.000000 -0.898705
vn 0.438553 0.000000 -0.898705
vn -0.999952 0.000000 0.009793
vn -0.217772 0.000000 0.976000
vn 0.217772 0.000000 0.976000
vn 0.999952 0.000000 0.009794
vn -0.307111 0.713866 -0.629348
vn 0.307111 0.713865 -0.629348
vn -0.604120 0.796880 0.004536
vn -0.160206 0.673408 0.721704
vn 0.160206 0.673408 0.721704
vn 0.604120 0.796880 0.004536
vn -0.178964 0.912947 -0.366742
vn 0.178964 0.912947 -0.366742
vn -0.326596 0.945164 0.000079
vn -0.095524 0.894144 0.437473
vn 0.095524 0.894144 0.437473
vn 0.326596 0.945164 0.000079
vn -0.105524 0.970619 -0.216246
vn 0.105524 0.970619 -0.216246
vn -0.188352 0.982098 -0.002532
vn -0.055507 0.963365 0.262386
vn 0.055507 0.963365 0.262386
vn 0.188352 0.982098 -0.002532
vn -0.057637 0.991326 -0.118112
vn 0.057637 0.991326 -0.118112
vn -0.102516 0.994724 -0.003733
vn -0.029124 0.988935 0.145465
vn 0.029124 0.988935 0.145465
vn 0.102516 0.994724 -0.003733
vn 0.000000 -0.999998 -0.002091
vn 0.000000 0.999991 -0.004204
s 1
g pSphere1
usemtl initialShadingGroup
f 49/91/83 43/85/84 44/86/85 50/92/86
f 50/92/86 44/86/85 45/87/87 51/93/88
f 51/93/88 45/87/87 46/88/89 52/94/90
f 52/94/90 46/88/89 47/89/91 53/95/92
f 53/95/92 47/89/91 48/90/93 54/96/94
f 54/96/94 48/90/93 43/85/84 49/91/83
f 50/92/86 56/98/95 55/97/96 49/91/83
f 51/93/88 57/99/97 56/98/95 50/92/86
f 52/94/90 58/100/98 57/99/97 51/93/88
f 53/95/92 59/101/99 58/100/98 52/94/90
f 54/96/94 60/102/100 59/101/99 53/95/92
f 49/91/83 55/97/96 60/102/100 54/96/94
f 56/98/95 62/104/101 61/103/102 55/97/96
f 57/99/97 63/105/103 62/104/101 56/98/95
f 58/100/98 64/106/104 63/105/103 57/99/97
f 59/101/99 65/107/105 64/106/104 58/100/98
f 60/102/100 66/108/106 65/107/105 59/101/99
f 55/97/96 61/103/102 66/108/106 60/102/100
f 62/104/101 68/110/107 67/109/108 61/103/102
f 63/105/103 69/111/109 68/110/107 62/104/101
f 64/106/104 70/112/110 69/111/109 63/105/103
f 65/107/105 71/113/111 70/112/110 64/106/104
f 66/108/106 72/114/112 71/113/111 65/107/105
f 61/103/102 67/109/108 72/114/112 66/108/106
f 68/110/107 74/116/113 73/115/114 67/109/108
f 69/111/109 75/117/115 74/116/113 68/110/107
f 70/112/110 76/118/116 75/117/115 69/111/109
f 71/113/111 77/119/117 76/118/116 70/112/110
f 72/114/112 78/120/118 77/119/117 71/113/111
f 67/109/108 73/115/114 78/120/118 72/114/112
f 74/116/113 80/122/119 79/121/120 73/115/114
f 75/117/115 81/123/121 80/122/119 74/116/113
f 76/118/116 82/124/122 81/123/121 75/117/115
f 77/119/117 83/125/123 82/124/122 76/118/116
f 78/120/118 84/126/124 83/125/123 77/119/117
f 73/115/114 79/121/120 84/126/124 78/120/118
f 80/122/119 86/128/125 85/127/126 79/121/120
f 81/123/121 87/129/127 86/128/125 80/122/119
f 82/124/122 88/130/128 87/129/127 81/123/121
f 83/125/123 89/131/129 88/130/128 82/124/122
f 84/126/124 90/132/130 89/131/129 83/125/123
f 79/121/120 85/127/126 90/132/130 84/126/124
f 86/128/125 92/134/131 91/133/132 85/127/126
f 87/129/127 93/135/133 92/134/131 86/128/125
f 88/130/128 94/136/134 93/135/133 87/129/127
f 89/131/129 95/137/135 94/136/134 88/130/128
f 90/132/130 96/138/136 95/137/135 89/131/129
f 85/127/126 91/133/132 96/138/136 90/132/130
f 92/134/131 98/140/137 97/139/138 91/133/132
f 93/135/133 99/141/139 98/140/137 92/134/131
f 94/136/134 100/142/140 99/141/139 93/135/133
f 95/137/135 101/143/141 100/142/140 94/136/134
f 96/138/136 102/144/142 101/143/141 95/137/135
f 91/133/132 97/139/138 102/144/142 96/138/136
f 44/86/85 43/85/84 103/146/143
f 45/87/87 44/86/85 103/147/143
f 46/88/89 45/87/87 103/148/143
f 47/89/91 46/88/89 103/149/143
f 48/90/93 47/89/91 103/150/143
f 43/85/84 48/90/93 103/145/143
f 98/140/137 104/151/144 97/139/138
f 99/141/139 104/152/144 98/140/137
f 100/142/140 104/153/144 99/141/139
f 101/143/141 104/154/144 100/142/140
f 102/144/142 104/155/144 101/143/141
f 97/139/138 104/156/144 102/144/142
