# This file uses centimeters as units for non-parametric coordinates.

mtllib Skybox.mtl
g default
v -0.500000 -0.500000 0.500000
v 0.500000 -0.500000 0.500000
v -0.500000 0.500000 0.500000
v 0.500000 0.500000 0.500000
v -0.500000 0.500000 -0.500000
v 0.500000 0.500000 -0.500000
v -0.500000 -0.500000 -0.500000
v 0.500000 -0.500000 -0.500000
vt 0.010866 0.381807
vt 0.256291 0.379928
vt 0.998246 0.616744
vt 0.261667 0.623687
vt 0.503772 0.867223
vt 0.505872 0.618033
vt 0.749477 0.375997
vt 0.256680 0.134121
vt 0.498785 0.377657
vt 0.497656 0.132974
vt 0.500967 0.377655
vt 0.503239 0.618623
vt 0.754411 0.374869
vt 0.753562 0.615846
vt 0.504794 0.377057
vt 0.255549 0.380687
vt 0.257809 0.378804
vt 0.999096 0.375766
vt 0.502643 0.622540
vt 0.750555 0.616974
vt 0.256687 0.621663
vt 0.258564 0.620896
vt 0.012003 0.622783
vt 0.262796 0.868370
vn 0.000000 0.000000 -1.000000
vn 0.000000 0.000000 -1.000000
vn 0.000000 0.000000 -1.000000
vn 0.000000 0.000000 -1.000000
vn 0.000000 -1.000000 0.000000
vn 0.000000 -1.000000 0.000000
vn 0.000000 -1.000000 0.000000
vn 0.000000 -1.000000 0.000000
vn 0.000000 0.000000 1.000000
vn 0.000000 0.000000 1.000000
vn 0.000000 0.000000 1.000000
vn 0.000000 0.000000 1.000000
vn 0.000000 1.000000 0.000000
vn 0.000000 1.000000 0.000000
vn 0.000000 1.000000 0.000000
vn 0.000000 1.000000 0.000000
vn -1.000000 0.000000 0.000000
vn -1.000000 0.000000 0.000000
vn -1.000000 0.000000 0.000000
vn -1.000000 0.000000 0.000000
vn 1.000000 0.000000 0.000000
vn 1.000000 0.000000 0.000000
vn 1.000000 0.000000 0.000000
vn 1.000000 0.000000 0.000000
s off
g pCube1
usemtl initialShadingGroup
f 1/1/1 3/23/2 4/21/3 2/16/4
f 3/24/5 5/5/6 6/19/7 4/4/8
f 5/20/9 7/7/10 8/15/11 6/6/12
f 7/17/13 1/9/14 2/10/15 8/8/16
f 2/2/17 4/22/18 6/12/19 8/11/20
f 7/13/21 5/14/22 3/3/23 1/18/24
