# This file uses centimeters as units for non-parametric coordinates.

mtllib plort.mtl
g default
v -1.590584 0.176865 1.590584
v -1.596777 1.410619 2.830530
v -2.830530 1.410619 1.596777
v 4.713039 1.342440 3.547465
v 3.629566 1.290383 4.743084
v 3.117260 0.176865 3.117260
v -2.830530 3.943112 1.596777
v -1.584974 3.926990 2.834849
v -1.590584 5.176866 1.590584
v 3.117259 5.176866 3.117261
v 3.547465 4.011292 4.713040
v 4.713039 4.011292 3.547466
v -4.743084 4.063348 -3.629566
v -3.117259 5.176866 -3.117261
v -3.629566 4.063348 -4.743085
v 1.584974 3.926990 -2.834849
v 1.590584 5.176866 -1.590584
v 2.834849 3.926990 -1.584974
v -4.713039 1.342440 -3.547465
v -3.629566 1.290383 -4.743084
v -3.117260 0.176865 -3.117260
v 1.590584 0.176865 -1.590584
v 1.596777 1.410619 -2.830530
v 2.830530 1.410619 -1.596777
vt 0.420471 0.954529
vt 0.375000 0.971365
vt 0.375000 0.808279
vt 0.391122 0.000000
vt 0.403635 0.061688
vt 0.625000 0.941721
vt 0.572350 0.947350
vt 0.625000 0.778635
vt 0.683279 0.058279
vt 0.375000 0.278635
vt 0.375000 0.444324
vt 0.404009 0.187506
vt 0.566721 0.191721
vt 0.625000 0.308279
vt 0.410936 0.555676
vt 0.412616 0.691721
vt 0.427650 0.447350
vt 0.579529 0.454529
vt 0.625000 0.575559
vt 0.625000 0.692559
vt 0.430676 0.694324
vt 0.596365 0.688312
vt 0.579529 0.795471
vt 0.569324 0.055676
vt 0.420471 0.295471
vt 0.572350 0.302650
vt 0.430676 0.555676
vt 0.595991 0.562494
vt 0.427650 0.802650
vt 0.846365 0.061688
vt 0.845991 0.187506
vt 0.183279 0.058279
vt 0.346365 0.061688
vt 0.346365 0.188312
vt 0.180676 0.194324
vt 0.538366 -0.000000
vt 0.683279 0.191721
vt 0.625000 0.470991
vn -0.466890 -0.753802 0.462382
vn -0.646171 -0.718387 0.257648
vn -0.648458 -0.725860 0.229413
vn -0.648458 -0.725860 0.229413
vn -0.258892 -0.724420 0.638898
vn -0.230648 -0.732398 0.640620
vn -0.230648 -0.732398 0.640620
vn -0.900138 0.000247 0.435605
vn -0.435306 0.000247 0.900283
vn -0.435143 0.000247 0.900361
vn -0.900531 0.000245 0.434792
vn 0.648458 -0.725859 -0.229413
vn 0.648458 -0.725859 -0.229413
vn 0.466890 -0.753802 -0.462382
vn 0.646172 -0.718387 -0.257648
vn 0.723849 0.014871 0.689798
vn 0.723849 0.014871 0.689798
vn 0.723849 0.014871 0.689798
vn 0.723849 0.014871 0.689798
vn -0.638735 0.724190 0.259938
vn -0.463413 0.752268 0.468338
vn -0.640620 0.732398 0.230648
vn -0.640620 0.732398 0.230648
vn -0.259035 0.715622 0.648680
vn -0.231330 0.723285 0.650650
vn -0.231330 0.723285 0.650650
vn 0.650650 0.723285 -0.231330
vn 0.650650 0.723285 -0.231330
vn 0.648517 0.715393 -0.260072
vn 0.469377 0.750691 -0.464918
vn -0.724567 -0.014260 -0.689057
vn -0.724567 -0.014260 -0.689057
vn -0.724567 -0.014260 -0.689057
vn -0.724567 -0.014260 -0.689057
vn 0.232590 0.729774 -0.642909
vn 0.232590 0.729774 -0.642909
vn 0.261340 0.721376 -0.641341
vn 0.433411 0.000486 -0.901196
vn 0.899802 0.000502 -0.436298
vn 0.899324 0.000507 -0.437283
vn 0.434371 0.000491 -0.900734
vn 0.230648 -0.732398 -0.640620
vn 0.230648 -0.732398 -0.640620
vn 0.258892 -0.724420 -0.638898
vn -0.343657 -0.000000 0.939095
vn -0.343657 -0.000000 0.939095
vn 0.000000 1.000000 0.000000
vn 0.000000 1.000000 0.000000
vn 0.000000 1.000000 0.000000
vn 0.000000 1.000000 0.000000
vn 0.343657 -0.000000 -0.939095
vn 0.343657 -0.000000 -0.939095
vn 0.000000 -1.000000 0.000000
vn 0.000000 -1.000000 0.000000
vn 0.000000 -1.000000 0.000000
vn 0.000000 -1.000000 0.000000
vn 0.939095 0.000000 -0.343657
vn 0.939095 0.000000 -0.343657
vn -0.939095 0.000000 0.343657
vn -0.939095 0.000000 0.343657
vn 0.471128 -0.789903 0.392545
vn 0.471128 -0.789903 0.392545
vn 0.471128 -0.789903 0.392545
vn 0.446264 0.775691 0.446265
vn 0.446264 0.775691 0.446265
vn 0.446264 0.775691 0.446265
vn -0.419332 0.805184 -0.419332
vn -0.419332 0.805184 -0.419332
vn -0.419332 0.805184 -0.419332
vn -0.471128 -0.789903 -0.392545
vn -0.471128 -0.789903 -0.392545
vn -0.471128 -0.789903 -0.392545
s 1
g pCube1
usemtl initialShadingGroup
f 1/1/1 3/2/2 19/3/3 21/29/4
f 2/5/5 1/4/1 6/36/6 5/24/7
s 2
f 3/33/8 2/5/9 8/12/10 7/34/11
s 3
f 4/6/12 6/7/13 22/23/14 24/8/15
s off
f 5/24/16 4/9/17 12/37/18 11/13/19
s 4
f 7/10/20 9/25/21 14/17/22 13/11/23
f 9/25/21 8/12/24 11/13/25 10/26/26
s 5
f 10/26/27 12/14/28 18/38/29 17/18/30
s off
f 13/15/31 15/27/32 20/21/33 19/16/34
s 5
f 15/27/35 14/17/36 17/18/30 16/28/37
s 6
f 16/28/38 18/19/39 24/20/40 23/22/41
s 3
f 21/29/42 20/21/43 23/22/44 22/23/14
s 2
f 2/5/9 5/24/45 11/13/46 8/12/10
s off
f 9/25/47 10/26/48 17/18/49 14/17/50
s 6
f 15/27/51 16/28/38 23/22/41 20/21/52
s off
f 21/29/53 22/23/54 6/7/55 1/1/56
s 6
f 4/9/57 24/30/40 18/31/39 12/37/58
s 2
f 19/32/59 3/33/8 7/34/11 13/35/60
s 1
f 1/4/1 2/5/5 3/33/2
s off
f 4/9/61 5/24/62 6/36/63
s 4
f 7/34/20 8/12/24 9/25/21
s off
f 10/26/64 11/13/65 12/37/66
f 13/11/67 14/17/68 15/27/69
s 5
f 16/28/37 17/18/30 18/38/29
s off
f 19/16/70 20/21/71 21/29/72
s 3
f 22/23/14 23/22/44 24/20/15
